<?xml version="1.0" encoding="UTF-8"?>
<svg xmlns="http://www.w3.org/2000/svg" version="1.1" viewBox="0 0 512 512">
  <defs>
    <style>
      .cls-1 {
        fill: #e96716;
      }
    </style>
  </defs>
  <!-- Generator: Adobe Illustrator 28.7.3, SVG Export Plug-In . SVG Version: 1.2.0 Build 164)  -->
  <g>
    <g id="Layer_1">
      <path class="cls-1" d="M256,512C114.8,512,0,397.2,0,256S114.8,0,256,0s256,114.8,256,256-114.8,256-256,256ZM256,32c-123.5,0-224,100.5-224,224s100.5,224,224,224,224-100.5,224-224S379.5,32,256,32Z"/>
      <path class="cls-1" d="M176.8,351.2c-4.1,0-8.2-1.6-11.3-4.7-6.2-6.2-6.2-16.4,0-22.6l158.4-158.4c6.3-6.2,16.4-6.2,22.6,0s6.2,16.4,0,22.6l-158.4,158.4c-3.2,3.1-7.2,4.7-11.3,4.7Z"/>
      <path class="cls-1" d="M335.2,351.2c-4.1,0-8.2-1.6-11.3-4.7l-158.4-158.4c-6.3-6.2-6.3-16.4,0-22.6,6.2-6.3,16.4-6.3,22.6,0l158.4,158.4c6.3,6.2,6.3,16.4,0,22.6-3.1,3.1-7.2,4.7-11.3,4.7Z"/>
    </g>
  </g>
</svg>